<?xml version="1.0" encoding="utf-8"?>
<!-- Generator: Adobe Illustrator 22.1.0, SVG Export Plug-In . SVG Version: 6.00 Build 0)  -->
<svg version="1.1" id="Layer_1" xmlns="http://www.w3.org/2000/svg" xmlns:xlink="http://www.w3.org/1999/xlink" x="0px" y="0px"
	 viewBox="0 0 1000 1000" style="enable-background:new 0 0 1000 1000;" xml:space="preserve">
<style type="text/css">
	.st0{font-family:'Merriweather-Bold';}
	.st1{font-size:80px;}
	.st2{font-size:48px;}
	.st3{font-family:'Merriweather-BoldItalic';}
	.st4{font-family:'OpenSans-SemiBold';}
	.st5{font-family:'OpenSans-Light';}
	.st6{font-family:'Merriweather-Regular';}
	.st7{fill:none;stroke:#FFA000;stroke-width:8;stroke-miterlimit:10;}
</style>
<text transform="matrix(1 0 0 1 80.9355 208.9355)"><tspan x="0" y="0" class="st0 st1">HMW bridge the</tspan><tspan x="0" y="96" class="st0 st1">gap between</tspan><tspan x="0" y="192" class="st0 st1">online and offline</tspan><tspan x="0" y="288" class="st0 st1">retail?</tspan></text>
<text transform="matrix(1 0 0 1 781.0205 559.9678)"><tspan x="0" y="0" class="st0 st2">Team</tspan><tspan x="-71.3" y="57.6" class="st3 st2">NOZAMA</tspan><tspan x="-196.9" y="115.2" class="st4 st2">Mia Chen</tspan><tspan x="20.1" y="115.2" class="st5 st2"> ORIE</tspan><tspan x="-282.8" y="172.8" class="st4 st2">Tannah Geng</tspan><tspan x="23.6" y="172.8" class="st5 st2"> MBA</tspan><tspan x="-224.1" y="230.4" class="st4 st2">Inga Kan</tspan><tspan x="-23" y="230.4" class="st5 st2"> Design</tspan><tspan x="-107.9" y="288" class="st4 st2">Sean Ni</tspan><tspan x="67.9" y="288" class="st5 st2"> CS</tspan><tspan x="-261.2" y="345.6" class="st4 st2">Bowen Zhang</tspan><tspan x="52.7" y="345.6" class="st5 st2"> CM</tspan></text>
<text transform="matrix(1 0 0 1 80.3652 122.8286)" class="st6 st2">PC005 Amazon</text>
<polyline class="st7" points="38,239 38,38 239,38 "/>
<polyline class="st7" points="962,756 962,957 761,957 "/>
</svg>
